<mxfile host="app.diagrams.net" modified="2024-01-09T20:23:31.879Z" agent="Mozilla/5.0 (Macintosh; Intel Mac OS X 10_15_7) AppleWebKit/537.36 (KHTML, like Gecko) Chrome/120.0.0.0 Safari/537.36" etag="47fVJGeFfZUSVPPiFG_6" version="22.1.17" type="github">
  <diagram name="Page-1" id="I26BEN8uDQTTKEwUg4cQ">
    <mxGraphModel dx="2040" dy="1265" grid="0" gridSize="10" guides="1" tooltips="1" connect="1" arrows="1" fold="1" page="0" pageScale="1" pageWidth="850" pageHeight="1100" background="none" math="0" shadow="0">
      <root>
        <mxCell id="0" />
        <mxCell id="1" parent="0" />
        <mxCell id="RMPd17xBl3mt-AhSF6YE-3" value="" style="edgeStyle=orthogonalEdgeStyle;rounded=0;orthogonalLoop=1;jettySize=auto;html=1;" parent="1" source="RMPd17xBl3mt-AhSF6YE-1" target="RMPd17xBl3mt-AhSF6YE-2" edge="1">
          <mxGeometry relative="1" as="geometry" />
        </mxCell>
        <mxCell id="RMPd17xBl3mt-AhSF6YE-1" value="START" style="ellipse;whiteSpace=wrap;html=1;" parent="1" vertex="1">
          <mxGeometry x="350" y="10" width="120" height="80" as="geometry" />
        </mxCell>
        <mxCell id="RMPd17xBl3mt-AhSF6YE-5" value="" style="edgeStyle=orthogonalEdgeStyle;rounded=0;orthogonalLoop=1;jettySize=auto;html=1;" parent="1" source="RMPd17xBl3mt-AhSF6YE-2" target="RMPd17xBl3mt-AhSF6YE-4" edge="1">
          <mxGeometry relative="1" as="geometry" />
        </mxCell>
        <mxCell id="RMPd17xBl3mt-AhSF6YE-2" value="DECLARE userInput, result as INTEGER" style="shape=hexagon;perimeter=hexagonPerimeter2;whiteSpace=wrap;html=1;fixedSize=1;" parent="1" vertex="1">
          <mxGeometry x="350" y="170" width="120" height="80" as="geometry" />
        </mxCell>
        <mxCell id="RMPd17xBl3mt-AhSF6YE-7" value="" style="edgeStyle=orthogonalEdgeStyle;rounded=0;orthogonalLoop=1;jettySize=auto;html=1;" parent="1" source="RMPd17xBl3mt-AhSF6YE-4" target="RMPd17xBl3mt-AhSF6YE-6" edge="1">
          <mxGeometry relative="1" as="geometry" />
        </mxCell>
        <mxCell id="RMPd17xBl3mt-AhSF6YE-4" value="&lt;font style=&quot;font-size: 9px;&quot;&gt;PRINT &quot;Enter a number from 1 to 12:&lt;/font&gt;" style="shape=parallelogram;perimeter=parallelogramPerimeter;whiteSpace=wrap;html=1;fixedSize=1;" parent="1" vertex="1">
          <mxGeometry x="320" y="290" width="180" height="60" as="geometry" />
        </mxCell>
        <mxCell id="RMPd17xBl3mt-AhSF6YE-9" value="" style="edgeStyle=orthogonalEdgeStyle;rounded=0;orthogonalLoop=1;jettySize=auto;html=1;" parent="1" source="RMPd17xBl3mt-AhSF6YE-6" target="RMPd17xBl3mt-AhSF6YE-8" edge="1">
          <mxGeometry relative="1" as="geometry" />
        </mxCell>
        <mxCell id="RMPd17xBl3mt-AhSF6YE-6" value="&lt;font style=&quot;font-size: 9px;&quot;&gt;READ userInput&lt;/font&gt;" style="shape=parallelogram;perimeter=parallelogramPerimeter;whiteSpace=wrap;html=1;fixedSize=1;" parent="1" vertex="1">
          <mxGeometry x="360" y="380" width="100" height="60" as="geometry" />
        </mxCell>
        <mxCell id="RMPd17xBl3mt-AhSF6YE-11" value="" style="edgeStyle=orthogonalEdgeStyle;rounded=0;orthogonalLoop=1;jettySize=auto;html=1;" parent="1" source="RMPd17xBl3mt-AhSF6YE-8" target="RMPd17xBl3mt-AhSF6YE-10" edge="1">
          <mxGeometry relative="1" as="geometry" />
        </mxCell>
        <mxCell id="RMPd17xBl3mt-AhSF6YE-8" value="" style="ellipse;whiteSpace=wrap;html=1;" parent="1" vertex="1">
          <mxGeometry x="400" y="460" width="20" height="20" as="geometry" />
        </mxCell>
        <mxCell id="RMPd17xBl3mt-AhSF6YE-13" value="" style="edgeStyle=orthogonalEdgeStyle;rounded=0;orthogonalLoop=1;jettySize=auto;html=1;" parent="1" source="RMPd17xBl3mt-AhSF6YE-10" target="RMPd17xBl3mt-AhSF6YE-12" edge="1">
          <mxGeometry relative="1" as="geometry" />
        </mxCell>
        <mxCell id="RMPd17xBl3mt-AhSF6YE-21" value="" style="edgeStyle=orthogonalEdgeStyle;rounded=0;orthogonalLoop=1;jettySize=auto;html=1;" parent="1" source="RMPd17xBl3mt-AhSF6YE-10" target="RMPd17xBl3mt-AhSF6YE-20" edge="1">
          <mxGeometry relative="1" as="geometry" />
        </mxCell>
        <mxCell id="RMPd17xBl3mt-AhSF6YE-10" value="userInput &amp;lt;1 OR&amp;nbsp;&lt;br&gt;userInput &amp;gt; 12" style="rhombus;whiteSpace=wrap;html=1;" parent="1" vertex="1">
          <mxGeometry x="335" y="500" width="150" height="150" as="geometry" />
        </mxCell>
        <mxCell id="RMPd17xBl3mt-AhSF6YE-15" value="" style="edgeStyle=orthogonalEdgeStyle;rounded=0;orthogonalLoop=1;jettySize=auto;html=1;" parent="1" source="RMPd17xBl3mt-AhSF6YE-12" target="RMPd17xBl3mt-AhSF6YE-14" edge="1">
          <mxGeometry relative="1" as="geometry" />
        </mxCell>
        <mxCell id="RMPd17xBl3mt-AhSF6YE-12" value="PRINT &quot;Invalid Input. Please enter &lt;br&gt;an INTEGER number from 1 to 12:&quot;" style="shape=parallelogram;perimeter=parallelogramPerimeter;whiteSpace=wrap;html=1;fixedSize=1;" parent="1" vertex="1">
          <mxGeometry x="295" y="690" width="230" height="60" as="geometry" />
        </mxCell>
        <mxCell id="RMPd17xBl3mt-AhSF6YE-17" value="" style="edgeStyle=orthogonalEdgeStyle;rounded=0;orthogonalLoop=1;jettySize=auto;html=1;" parent="1" source="RMPd17xBl3mt-AhSF6YE-14" target="RMPd17xBl3mt-AhSF6YE-16" edge="1">
          <mxGeometry relative="1" as="geometry" />
        </mxCell>
        <mxCell id="RMPd17xBl3mt-AhSF6YE-14" value="READ userInput" style="shape=parallelogram;perimeter=parallelogramPerimeter;whiteSpace=wrap;html=1;fixedSize=1;" parent="1" vertex="1">
          <mxGeometry x="350" y="780" width="120" height="60" as="geometry" />
        </mxCell>
        <mxCell id="RMPd17xBl3mt-AhSF6YE-18" style="edgeStyle=orthogonalEdgeStyle;rounded=0;orthogonalLoop=1;jettySize=auto;html=1;entryX=0;entryY=0.5;entryDx=0;entryDy=0;" parent="1" source="RMPd17xBl3mt-AhSF6YE-16" target="RMPd17xBl3mt-AhSF6YE-8" edge="1">
          <mxGeometry relative="1" as="geometry">
            <mxPoint x="390" y="480" as="targetPoint" />
            <Array as="points">
              <mxPoint x="410" y="930" />
              <mxPoint x="230" y="930" />
              <mxPoint x="230" y="470" />
            </Array>
          </mxGeometry>
        </mxCell>
        <mxCell id="RMPd17xBl3mt-AhSF6YE-16" value="" style="ellipse;whiteSpace=wrap;html=1;" parent="1" vertex="1">
          <mxGeometry x="400" y="880" width="20" height="20" as="geometry" />
        </mxCell>
        <mxCell id="RMPd17xBl3mt-AhSF6YE-19" value="Yes" style="text;html=1;strokeColor=none;fillColor=none;align=center;verticalAlign=middle;whiteSpace=wrap;rounded=0;" parent="1" vertex="1">
          <mxGeometry x="400" y="650" width="60" height="30" as="geometry" />
        </mxCell>
        <mxCell id="RMPd17xBl3mt-AhSF6YE-23" value="" style="edgeStyle=orthogonalEdgeStyle;rounded=0;orthogonalLoop=1;jettySize=auto;html=1;" parent="1" source="RMPd17xBl3mt-AhSF6YE-20" target="RMPd17xBl3mt-AhSF6YE-22" edge="1">
          <mxGeometry relative="1" as="geometry" />
        </mxCell>
        <mxCell id="RMPd17xBl3mt-AhSF6YE-20" value="PRINT &quot;Multiplication Table for&quot;, userInput, &quot;:&quot;" style="shape=parallelogram;perimeter=parallelogramPerimeter;whiteSpace=wrap;html=1;fixedSize=1;" parent="1" vertex="1">
          <mxGeometry x="560" y="545" width="210" height="60" as="geometry" />
        </mxCell>
        <mxCell id="RMPd17xBl3mt-AhSF6YE-25" value="" style="edgeStyle=orthogonalEdgeStyle;rounded=0;orthogonalLoop=1;jettySize=auto;html=1;" parent="1" source="RMPd17xBl3mt-AhSF6YE-22" target="RMPd17xBl3mt-AhSF6YE-24" edge="1">
          <mxGeometry relative="1" as="geometry" />
        </mxCell>
        <mxCell id="RMPd17xBl3mt-AhSF6YE-22" value="" style="ellipse;whiteSpace=wrap;html=1;" parent="1" vertex="1">
          <mxGeometry x="652.5" y="640" width="25" height="25" as="geometry" />
        </mxCell>
        <mxCell id="RMPd17xBl3mt-AhSF6YE-27" value="" style="edgeStyle=orthogonalEdgeStyle;rounded=0;orthogonalLoop=1;jettySize=auto;html=1;" parent="1" source="RMPd17xBl3mt-AhSF6YE-24" target="RMPd17xBl3mt-AhSF6YE-26" edge="1">
          <mxGeometry relative="1" as="geometry" />
        </mxCell>
        <mxCell id="RMPd17xBl3mt-AhSF6YE-37" value="" style="edgeStyle=orthogonalEdgeStyle;rounded=0;orthogonalLoop=1;jettySize=auto;html=1;" parent="1" source="RMPd17xBl3mt-AhSF6YE-24" target="RMPd17xBl3mt-AhSF6YE-36" edge="1">
          <mxGeometry relative="1" as="geometry" />
        </mxCell>
        <mxCell id="RMPd17xBl3mt-AhSF6YE-24" value="i FROM 1 TO 12" style="rhombus;whiteSpace=wrap;html=1;" parent="1" vertex="1">
          <mxGeometry x="612.2" y="690" width="105.61" height="102.5" as="geometry" />
        </mxCell>
        <mxCell id="RMPd17xBl3mt-AhSF6YE-29" value="" style="edgeStyle=orthogonalEdgeStyle;rounded=0;orthogonalLoop=1;jettySize=auto;html=1;" parent="1" source="RMPd17xBl3mt-AhSF6YE-26" target="RMPd17xBl3mt-AhSF6YE-28" edge="1">
          <mxGeometry relative="1" as="geometry" />
        </mxCell>
        <mxCell id="RMPd17xBl3mt-AhSF6YE-26" value="result = userInput * i" style="whiteSpace=wrap;html=1;" parent="1" vertex="1">
          <mxGeometry x="621.26" y="820" width="87.5" height="43.75" as="geometry" />
        </mxCell>
        <mxCell id="RMPd17xBl3mt-AhSF6YE-33" style="edgeStyle=orthogonalEdgeStyle;rounded=0;orthogonalLoop=1;jettySize=auto;html=1;entryX=0;entryY=0.5;entryDx=0;entryDy=0;" parent="1" source="RMPd17xBl3mt-AhSF6YE-28" target="RMPd17xBl3mt-AhSF6YE-22" edge="1">
          <mxGeometry relative="1" as="geometry">
            <mxPoint x="550" y="650" as="targetPoint" />
            <Array as="points">
              <mxPoint x="665" y="1010" />
              <mxPoint x="550" y="1010" />
              <mxPoint x="550" y="653" />
            </Array>
          </mxGeometry>
        </mxCell>
        <mxCell id="RMPd17xBl3mt-AhSF6YE-28" value="PRINT userInput, &quot;*&#39;, i, &quot;=&quot;, result" style="shape=parallelogram;perimeter=parallelogramPerimeter;whiteSpace=wrap;html=1;fixedSize=1;" parent="1" vertex="1">
          <mxGeometry x="577.5" y="890" width="175.01" height="60" as="geometry" />
        </mxCell>
        <mxCell id="RMPd17xBl3mt-AhSF6YE-34" value="No" style="text;html=1;strokeColor=none;fillColor=none;align=center;verticalAlign=middle;whiteSpace=wrap;rounded=0;" parent="1" vertex="1">
          <mxGeometry x="485" y="545" width="60" height="30" as="geometry" />
        </mxCell>
        <mxCell id="RMPd17xBl3mt-AhSF6YE-36" value="STOP" style="ellipse;whiteSpace=wrap;html=1;" parent="1" vertex="1">
          <mxGeometry x="752.51" y="700" width="120" height="80" as="geometry" />
        </mxCell>
        <mxCell id="RMPd17xBl3mt-AhSF6YE-38" value="Yes" style="text;html=1;strokeColor=none;fillColor=none;align=center;verticalAlign=middle;whiteSpace=wrap;rounded=0;" parent="1" vertex="1">
          <mxGeometry x="652.5" y="790" width="60" height="30" as="geometry" />
        </mxCell>
        <mxCell id="RMPd17xBl3mt-AhSF6YE-39" value="No" style="text;html=1;strokeColor=none;fillColor=none;align=center;verticalAlign=middle;whiteSpace=wrap;rounded=0;" parent="1" vertex="1">
          <mxGeometry x="700" y="710" width="60" height="30" as="geometry" />
        </mxCell>
      </root>
    </mxGraphModel>
  </diagram>
</mxfile>
